<svg xmlns="http://www.w3.org/2000/svg" xmlns:xlink="http://www.w3.org/1999/xlink" width="500" zoomAndPan="magnify" viewBox="0 0 375 112.499997" height="150" preserveAspectRatio="xMidYMid meet" version="1.0"><defs><g/></defs><g fill="#cb2c2a" fill-opacity="1"><g transform="translate(31.163715, 100.055303)"><g><path d="M 21.671875 -13.65625 L 32.265625 -13.65625 C 34.460938 -16.40625 36.207031 -20.410156 37.5 -25.671875 C 38.800781 -30.929688 39.453125 -36.148438 39.453125 -41.328125 C 39.453125 -53.660156 37.132812 -62.648438 32.5 -68.296875 L 21.671875 -68.296875 Z M 5.65625 0 L 5.65625 -82.4375 L 39.8125 -82.4375 C 50.957031 -72.539062 56.53125 -59.132812 56.53125 -42.21875 C 56.53125 -25.300781 51.304688 -11.226562 40.859375 0 Z M 5.65625 0 "/></g></g></g><g fill="#cb2c2a" fill-opacity="1"><g transform="translate(91.224168, 100.055303)"><g><path d="M 32.265625 -47.8125 L 23.4375 -47.8125 C 22.257812 -46.394531 21.296875 -44.429688 20.546875 -41.921875 C 19.804688 -39.410156 19.4375 -36.976562 19.4375 -34.625 L 36.265625 -34.625 C 36.421875 -36.976562 36.109375 -39.429688 35.328125 -41.984375 C 34.546875 -44.535156 33.523438 -46.476562 32.265625 -47.8125 Z M 48.28125 -12.359375 L 48.28125 0 L 18.375 0 C 12.875 -3.6875 9.003906 -8.257812 6.765625 -13.71875 C 4.535156 -19.175781 3.421875 -24.691406 3.421875 -30.265625 C 3.421875 -43.140625 8.285156 -53.109375 18.015625 -60.171875 L 37.09375 -60.171875 C 42.351562 -56.328125 45.925781 -52.242188 47.8125 -47.921875 C 49.695312 -43.609375 50.640625 -39.253906 50.640625 -34.859375 C 50.640625 -30.460938 50.285156 -26.691406 49.578125 -23.546875 L 20.25 -23.546875 C 20.488281 -21.742188 21.175781 -19.679688 22.3125 -17.359375 C 23.457031 -15.046875 24.695312 -13.378906 26.03125 -12.359375 Z M 48.28125 -12.359375 "/></g></g></g><g fill="#cb2c2a" fill-opacity="1"><g transform="translate(144.689748, 100.055303)"><g><path d="M 10.953125 -60.171875 L 36.984375 -60.171875 L 36.984375 -47.8125 L 18.609375 -47.8125 L 29.796875 -31.203125 C 34.816406 -24.054688 37.601562 -19.148438 38.15625 -16.484375 C 38.46875 -15.234375 38.625 -13.9375 38.625 -12.59375 C 38.625 -7.019531 36.546875 -2.820312 32.390625 0 L 2.359375 0 L 2.359375 -12.359375 L 23.90625 -12.359375 L 11.3125 -30.859375 C 10.757812 -31.722656 9.910156 -32.9375 8.765625 -34.5 C 7.628906 -36.070312 6.75 -37.347656 6.125 -38.328125 C 5.5 -39.316406 5.066406 -40.046875 4.828125 -40.515625 C 4.585938 -40.984375 4.269531 -41.585938 3.875 -42.328125 C 3.488281 -43.078125 3.21875 -43.726562 3.0625 -44.28125 C 2.75 -45.769531 2.59375 -46.988281 2.59375 -47.9375 C 2.59375 -53.664062 5.378906 -57.742188 10.953125 -60.171875 Z M 10.953125 -60.171875 "/></g></g></g><g fill="#cb2c2a" fill-opacity="1"><g transform="translate(185.907708, 100.055303)"><g><path d="M 19.671875 -30.625 C 19.671875 -27.320312 20.179688 -23.960938 21.203125 -20.546875 C 22.222656 -17.128906 23.632812 -14.398438 25.4375 -12.359375 L 43.109375 -12.359375 L 43.109375 0 L 17.3125 0 C 8.050781 -7.375 3.421875 -17.578125 3.421875 -30.609375 C 3.421875 -43.648438 8.363281 -53.503906 18.25 -60.171875 L 43.109375 -60.171875 L 43.109375 -47.8125 L 25.4375 -47.8125 C 21.59375 -43.8125 19.671875 -38.082031 19.671875 -30.625 Z M 19.671875 -30.625 "/></g></g></g><g fill="#cb2c2a" fill-opacity="1"><g transform="translate(231.83629, 100.055303)"><g><path d="M 25.90625 0 L 13.546875 0 C 10.085938 -4.394531 7.726562 -8.789062 6.46875 -13.1875 C 5.21875 -17.582031 4.59375 -23.078125 4.59375 -29.671875 L 4.59375 -60.171875 L 20.25 -60.171875 L 20.25 -28.5 C 20.25 -21.351562 21.664062 -15.972656 24.5 -12.359375 L 35.453125 -12.359375 L 35.453125 -60.171875 L 51.109375 -60.171875 L 51.109375 0 L 38.75 0 L 36.625 -4.234375 C 33.644531 -1.410156 30.070312 0 25.90625 0 Z M 25.90625 0 "/></g></g></g><g fill="#cb2c2a" fill-opacity="1"><g transform="translate(288.010482, 100.055303)"><g><path d="M 5.0625 -82.4375 L 20.609375 -82.4375 L 20.609375 -55.9375 C 22.335938 -57.507812 23.96875 -58.609375 25.5 -59.234375 C 27.03125 -59.859375 29.328125 -60.171875 32.390625 -60.171875 L 41.8125 -60.171875 C 45.101562 -56.953125 47.691406 -52.789062 49.578125 -47.6875 C 51.460938 -42.59375 52.40625 -36.984375 52.40625 -30.859375 C 52.40625 -17.742188 48.476562 -7.457031 40.625 0 L 29.4375 0 C 25.59375 0 22.375 -1.453125 19.78125 -4.359375 L 17.671875 0 L 5.0625 0 Z M 20.734375 -12.359375 L 32.03125 -12.359375 C 34.9375 -17.304688 36.390625 -23.3125 36.390625 -30.375 C 36.390625 -37.445312 34.898438 -43.257812 31.921875 -47.8125 L 20.734375 -47.8125 Z M 20.734375 -12.359375 "/></g></g></g></svg>