<svg xmlns="http://www.w3.org/2000/svg" xmlns:xlink="http://www.w3.org/1999/xlink" width="500" zoomAndPan="magnify" viewBox="0 0 375 112.499997" height="150" preserveAspectRatio="xMidYMid meet" version="1.0"><path fill="#ffffff" d="M 27.042969 87.828125 L 39.703125 87.828125 C 42.328125 84.558594 44.414062 79.789062 45.960938 73.519531 C 47.503906 67.253906 48.277344 61.03125 48.277344 54.863281 C 48.277344 40.1875 45.511719 29.480469 39.992188 22.742188 L 27.042969 22.742188 Z M 7.925781 104.105469 L 7.925781 5.90625 L 48.710938 5.90625 C 62.019531 17.699219 68.675781 33.667969 68.675781 53.816406 C 68.675781 73.964844 62.441406 90.730469 49.976562 104.105469 Z M 7.925781 104.105469 " fill-opacity="1" fill-rule="nonzero"/><path fill="#ffffff" d="M 111.402344 47.15625 L 100.859375 47.15625 C 99.449219 48.84375 98.292969 51.179688 97.402344 54.175781 C 96.523438 57.164062 96.082031 60.054688 96.082031 62.855469 L 116.175781 62.855469 C 116.367188 60.054688 115.996094 57.136719 115.054688 54.105469 C 114.117188 51.0625 112.894531 48.746094 111.402344 47.15625 Z M 130.519531 89.382812 L 130.519531 104.105469 L 94.816406 104.105469 C 88.257812 99.714844 83.640625 94.273438 80.964844 87.777344 C 78.289062 81.269531 76.949219 74.691406 76.949219 68.050781 C 76.949219 52.714844 82.757812 40.835938 94.382812 32.414062 L 117.171875 32.414062 C 123.453125 36.996094 127.714844 41.863281 129.957031 47.011719 C 132.210938 52.164062 133.339844 57.351562 133.339844 62.585938 C 133.339844 67.816406 132.914062 72.304688 132.074219 76.046875 L 97.058594 76.046875 C 97.335938 78.203125 98.15625 80.660156 99.519531 83.425781 C 100.882812 86.183594 102.359375 88.167969 103.949219 89.382812 Z M 130.519531 89.382812 " fill-opacity="1" fill-rule="nonzero"/><path fill="#ffffff" d="M 149.78125 32.414062 L 180.851562 32.414062 L 180.851562 47.15625 L 158.914062 47.15625 L 172.28125 66.933594 C 178.269531 75.441406 181.597656 81.289062 182.261719 84.472656 C 182.632812 85.964844 182.824219 87.503906 182.824219 89.09375 C 182.824219 95.734375 180.335938 100.742188 175.371094 104.105469 L 139.507812 104.105469 L 139.507812 89.382812 L 165.246094 89.382812 L 150.195312 67.347656 C 149.546875 66.328125 148.539062 64.886719 147.175781 63.019531 C 145.8125 61.140625 144.757812 59.621094 144.011719 58.453125 C 143.261719 57.273438 142.746094 56.410156 142.457031 55.855469 C 142.175781 55.289062 141.804688 54.5625 141.335938 53.671875 C 140.875 52.78125 140.546875 52.011719 140.359375 51.359375 C 139.984375 49.582031 139.796875 48.132812 139.796875 47.011719 C 139.796875 40.183594 143.125 35.316406 149.78125 32.414062 Z M 149.78125 32.414062 " fill-opacity="1" fill-rule="nonzero"/><path fill="#ffffff" d="M 209.386719 67.636719 C 209.386719 71.5625 209.992188 75.558594 211.214844 79.636719 C 212.429688 83.707031 214.117188 86.953125 216.277344 89.382812 L 237.367188 89.382812 L 237.367188 104.105469 L 206.582031 104.105469 C 195.515625 95.3125 189.980469 83.15625 189.980469 67.636719 C 189.980469 52.109375 195.886719 40.367188 207.703125 32.414062 L 237.367188 32.414062 L 237.367188 47.15625 L 216.277344 47.15625 C 211.683594 51.921875 209.386719 58.75 209.386719 67.636719 Z M 209.386719 67.636719 " fill-opacity="1" fill-rule="nonzero"/><path fill="#ffffff" d="M 271.667969 104.105469 L 256.910156 104.105469 C 252.785156 98.875 249.96875 93.640625 248.464844 88.40625 C 246.964844 83.164062 246.21875 76.613281 246.21875 68.757812 L 246.21875 32.414062 L 264.921875 32.414062 L 264.921875 70.164062 C 264.921875 78.671875 266.609375 85.078125 269.984375 89.382812 L 283.0625 89.382812 L 283.0625 32.414062 L 301.761719 32.414062 L 301.761719 104.105469 L 287.003906 104.105469 L 284.472656 99.054688 C 280.898438 102.421875 276.632812 104.105469 271.667969 104.105469 Z M 271.667969 104.105469 " fill-opacity="1" fill-rule="nonzero"/><path fill="#ffffff" d="M 313.839844 5.90625 L 332.398438 5.90625 L 332.398438 37.464844 C 334.460938 35.601562 336.402344 34.300781 338.238281 33.550781 C 340.070312 32.792969 342.816406 32.414062 346.46875 32.414062 L 357.71875 32.414062 C 361.648438 36.253906 364.734375 41.214844 366.976562 47.300781 C 369.230469 53.378906 370.359375 60.058594 370.359375 67.347656 C 370.359375 82.964844 365.675781 95.21875 356.308594 104.105469 L 342.960938 104.105469 C 338.367188 104.105469 334.519531 102.375 331.421875 98.910156 L 328.890625 104.105469 L 313.839844 104.105469 Z M 332.542969 89.382812 L 346.050781 89.382812 C 349.511719 83.488281 351.242188 76.335938 351.242188 67.925781 C 351.242188 59.507812 349.460938 52.582031 345.90625 47.15625 L 332.542969 47.15625 Z M 332.542969 89.382812 " fill-opacity="1" fill-rule="nonzero"/></svg>